<svg width="25" height="24" viewBox="0 0 25 24" fill="#fff" xmlns="http://www.w3.org/2000/svg">
<path d="M15.8725 14H15.0825L14.8025 13.73C16.0025 12.33 16.6225 10.42 16.2825 8.39002C15.8125 5.61002 13.4925 3.39002 10.6925 3.05002C6.46247 2.53002 2.90247 6.09001 3.42247 10.32C3.76247 13.12 5.98247 15.44 8.76247 15.91C10.7925 16.25 12.7025 15.63 14.1025 14.43L14.3725 14.71V15.5L18.6225 19.75C19.0325 20.16 19.7025 20.16 20.1125 19.75C20.5225 19.34 20.5225 18.67 20.1125 18.26L15.8725 14ZM9.87247 14C7.38247 14 5.37247 11.99 5.37247 9.50002C5.37247 7.01002 7.38247 5.00002 9.87247 5.00002C12.3625 5.00002 14.3725 7.01002 14.3725 9.50002C14.3725 11.99 12.3625 14 9.87247 14Z" fill="white"/>
</svg>
